<?xml version="1.0" encoding="UTF-8" standalone="no"?>
<!DOCTYPE svg PUBLIC "-//W3C//DTD SVG 1.1//EN"
 "http://www.w3.org/Graphics/SVG/1.1/DTD/svg11.dtd">
<!-- Generated by graphviz version 2.44.0 (0)
 -->
<!-- Title: GG Pages: 1 -->
<svg width="178pt" height="260pt"
 viewBox="0.00 0.00 177.67 260.00" xmlns="http://www.w3.org/2000/svg" xmlns:xlink="http://www.w3.org/1999/xlink">
<g id="graph0" class="graph" transform="scale(1 1) rotate(0) translate(4 256)">
<title>GG</title>
<!-- curl -->
<g id="node1" class="node">
<title>curl</title>
<ellipse fill="none" stroke="#64748b" cx="65.67" cy="-234" rx="27" ry="18"/>
<text text-anchor="middle" x="65.67" y="-231.5" font-family="Times-Roman" font-size="10.00" fill="#64748b">curl</text>
</g>
<!-- c&#45;ares -->
<g id="node2" class="node">
<title>c&#45;ares</title>
<ellipse fill="none" stroke="#64748b" cx="27.67" cy="-162" rx="27.84" ry="18"/>
<text text-anchor="middle" x="27.67" y="-159.5" font-family="Times-Roman" font-size="10.00" fill="#64748b">c&#45;ares</text>
</g>
<!-- curl&#45;&gt;c&#45;ares -->
<g id="edge1" class="edge">
<title>curl&#45;&gt;c&#45;ares</title>
<path fill="none" stroke="#64748b" d="M56.85,-216.76C52.25,-208.28 46.51,-197.71 41.35,-188.2"/>
<polygon fill="#64748b" stroke="#64748b" points="44.28,-186.27 36.43,-179.15 38.13,-189.61 44.28,-186.27"/>
</g>
<!-- libssh2 -->
<g id="node3" class="node">
<title>libssh2</title>
<ellipse fill="none" stroke="#64748b" cx="103.67" cy="-162" rx="30.04" ry="18"/>
<text text-anchor="middle" x="103.67" y="-159.5" font-family="Times-Roman" font-size="10.00" fill="#64748b">libssh2</text>
</g>
<!-- curl&#45;&gt;libssh2 -->
<g id="edge2" class="edge">
<title>curl&#45;&gt;libssh2</title>
<path fill="none" stroke="#64748b" d="M74.48,-216.76C79.02,-208.4 84.66,-198.02 89.77,-188.61"/>
<polygon fill="#64748b" stroke="#64748b" points="92.94,-190.09 94.64,-179.63 86.79,-186.75 92.94,-190.09"/>
</g>
<!-- openssl -->
<g id="node4" class="node">
<title>openssl</title>
<ellipse fill="none" stroke="#64748b" cx="65.67" cy="-90" rx="31.58" ry="18"/>
<text text-anchor="middle" x="65.67" y="-87.5" font-family="Times-Roman" font-size="10.00" fill="#64748b">openssl</text>
</g>
<!-- libssh2&#45;&gt;openssl -->
<g id="edge3" class="edge">
<title>libssh2&#45;&gt;openssl</title>
<path fill="none" stroke="#64748b" d="M94.85,-144.76C90.32,-136.4 84.68,-126.02 79.57,-116.61"/>
<polygon fill="#64748b" stroke="#64748b" points="82.54,-114.75 74.7,-107.63 76.39,-118.09 82.54,-114.75"/>
</g>
<!-- zlib -->
<g id="node5" class="node">
<title>zlib</title>
<ellipse fill="none" stroke="#64748b" cx="142.67" cy="-90" rx="27" ry="18"/>
<text text-anchor="middle" x="142.67" y="-87.5" font-family="Times-Roman" font-size="10.00" fill="#64748b">zlib</text>
</g>
<!-- libssh2&#45;&gt;zlib -->
<g id="edge4" class="edge">
<title>libssh2&#45;&gt;zlib</title>
<path fill="none" stroke="#64748b" d="M112.71,-144.76C117.49,-136.19 123.45,-125.49 128.79,-115.9"/>
<polygon fill="#64748b" stroke="#64748b" points="131.86,-117.59 133.67,-107.15 125.75,-114.18 131.86,-117.59"/>
</g>
<!-- nasm -->
<g id="node6" class="node">
<title>nasm</title>
<ellipse fill="none" stroke="#64748b" cx="29.67" cy="-18" rx="27" ry="18"/>
<text text-anchor="middle" x="29.67" y="-15.5" font-family="Times-Roman" font-size="10.00" fill="#64748b">nasm</text>
</g>
<!-- openssl&#45;&gt;nasm -->
<g id="edge5" class="edge">
<title>openssl&#45;&gt;nasm</title>
<path fill="none" stroke="#64748b" stroke-dasharray="5,2" d="M57.14,-72.41C52.83,-64.04 47.52,-53.71 42.71,-44.37"/>
<polygon fill="#64748b" stroke="#64748b" points="45.82,-42.76 38.14,-35.47 39.6,-45.96 45.82,-42.76"/>
</g>
<!-- yasm -->
<g id="node7" class="node">
<title>yasm</title>
<ellipse fill="none" stroke="#64748b" cx="101.67" cy="-18" rx="27" ry="18"/>
<text text-anchor="middle" x="101.67" y="-15.5" font-family="Times-Roman" font-size="10.00" fill="#64748b">yasm</text>
</g>
<!-- openssl&#45;&gt;yasm -->
<g id="edge6" class="edge">
<title>openssl&#45;&gt;yasm</title>
<path fill="none" stroke="#64748b" stroke-dasharray="5,2" d="M74.2,-72.41C78.5,-64.04 83.82,-53.71 88.62,-44.37"/>
<polygon fill="#64748b" stroke="#64748b" points="91.74,-45.96 93.2,-35.47 85.51,-42.76 91.74,-45.96"/>
</g>
</g>
</svg>
