<?xml version="1.0" encoding="UTF-8" standalone="no"?>
<!DOCTYPE svg PUBLIC "-//W3C//DTD SVG 1.1//EN"
 "http://www.w3.org/Graphics/SVG/1.1/DTD/svg11.dtd">
<!-- Generated by graphviz version 2.44.0 (0)
 -->
<!-- Title: GG Pages: 1 -->
<svg width="233pt" height="260pt"
 viewBox="0.00 0.00 232.97 260.00" xmlns="http://www.w3.org/2000/svg" xmlns:xlink="http://www.w3.org/1999/xlink">
<g id="graph0" class="graph" transform="scale(1 1) rotate(0) translate(4 256)">
<title>GG</title>
<!-- curl -->
<g id="node1" class="node">
<title>curl</title>
<ellipse fill="none" stroke="#64748b" cx="120.97" cy="-234" rx="27" ry="18"/>
<text text-anchor="middle" x="120.97" y="-231.5" font-family="Times-Roman" font-size="10.00" fill="#64748b">curl</text>
</g>
<!-- c&#45;ares -->
<g id="node2" class="node">
<title>c&#45;ares</title>
<ellipse fill="none" stroke="#64748b" cx="35.97" cy="-162" rx="27.84" ry="18"/>
<text text-anchor="middle" x="35.97" y="-159.5" font-family="Times-Roman" font-size="10.00" fill="#64748b">c&#45;ares</text>
</g>
<!-- curl&#45;&gt;c&#45;ares -->
<g id="edge1" class="edge">
<title>curl&#45;&gt;c&#45;ares</title>
<path fill="none" stroke="#64748b" d="M104.58,-219.5C92.07,-209.21 74.65,-194.86 60.49,-183.2"/>
<polygon fill="#64748b" stroke="#64748b" points="62.54,-180.35 52.59,-176.69 58.09,-185.75 62.54,-180.35"/>
</g>
<!-- openssl -->
<g id="node3" class="node">
<title>openssl</title>
<ellipse fill="none" stroke="#64748b" cx="110.97" cy="-90" rx="31.58" ry="18"/>
<text text-anchor="middle" x="110.97" y="-87.5" font-family="Times-Roman" font-size="10.00" fill="#64748b">openssl</text>
</g>
<!-- curl&#45;&gt;openssl -->
<g id="edge2" class="edge">
<title>curl&#45;&gt;openssl</title>
<path fill="none" stroke="#64748b" d="M116.91,-215.93C114.66,-205.6 112.1,-192.12 110.97,-180 109.04,-159.36 109.13,-135.91 109.65,-118.27"/>
<polygon fill="#64748b" stroke="#64748b" points="113.16,-118.23 110.02,-108.11 106.16,-117.97 113.16,-118.23"/>
</g>
<!-- zlib -->
<g id="node4" class="node">
<title>zlib</title>
<ellipse fill="none" stroke="#64748b" cx="197.97" cy="-90" rx="27" ry="18"/>
<text text-anchor="middle" x="197.97" y="-87.5" font-family="Times-Roman" font-size="10.00" fill="#64748b">zlib</text>
</g>
<!-- curl&#45;&gt;zlib -->
<g id="edge3" class="edge">
<title>curl&#45;&gt;zlib</title>
<path fill="none" stroke="#64748b" d="M141.99,-222.65C157.77,-213.68 178.4,-199.13 188.97,-180 199.32,-161.25 201.13,-136.87 200.6,-118.37"/>
<polygon fill="#64748b" stroke="#64748b" points="204.09,-118.04 200.06,-108.24 197.1,-118.41 204.09,-118.04"/>
</g>
<!-- libssh2 -->
<g id="node5" class="node">
<title>libssh2</title>
<ellipse fill="none" stroke="#64748b" cx="149.97" cy="-162" rx="30.04" ry="18"/>
<text text-anchor="middle" x="149.97" y="-159.5" font-family="Times-Roman" font-size="10.00" fill="#64748b">libssh2</text>
</g>
<!-- curl&#45;&gt;libssh2 -->
<g id="edge4" class="edge">
<title>curl&#45;&gt;libssh2</title>
<path fill="none" stroke="#64748b" d="M127.84,-216.41C131.18,-208.34 135.29,-198.43 139.05,-189.35"/>
<polygon fill="#64748b" stroke="#64748b" points="142.35,-190.53 142.94,-179.96 135.88,-187.86 142.35,-190.53"/>
</g>
<!-- Threads -->
<g id="node6" class="node">
<title>Threads</title>
<ellipse fill="none" stroke="#64748b" cx="32.97" cy="-18" rx="32.93" ry="18"/>
<text text-anchor="middle" x="32.97" y="-15.5" font-family="Times-Roman" font-size="10.00" fill="#64748b">Threads</text>
</g>
<!-- openssl&#45;&gt;Threads -->
<g id="edge5" class="edge">
<title>openssl&#45;&gt;Threads</title>
<path fill="none" stroke="#64748b" d="M94.8,-74.5C83.9,-64.71 69.31,-51.61 57.04,-40.6"/>
<polygon fill="#64748b" stroke="#64748b" points="59.15,-37.8 49.37,-33.73 54.48,-43.01 59.15,-37.8"/>
</g>
<!-- nasm -->
<g id="node7" class="node">
<title>nasm</title>
<ellipse fill="none" stroke="#64748b" cx="110.97" cy="-18" rx="27" ry="18"/>
<text text-anchor="middle" x="110.97" y="-15.5" font-family="Times-Roman" font-size="10.00" fill="#64748b">nasm</text>
</g>
<!-- openssl&#45;&gt;nasm -->
<g id="edge6" class="edge">
<title>openssl&#45;&gt;nasm</title>
<path fill="none" stroke="#64748b" stroke-dasharray="5,2" d="M110.97,-71.7C110.97,-63.98 110.97,-54.71 110.97,-46.11"/>
<polygon fill="#64748b" stroke="#64748b" points="114.47,-46.1 110.97,-36.1 107.47,-46.1 114.47,-46.1"/>
</g>
<!-- yasm -->
<g id="node8" class="node">
<title>yasm</title>
<ellipse fill="none" stroke="#64748b" cx="182.97" cy="-18" rx="27" ry="18"/>
<text text-anchor="middle" x="182.97" y="-15.5" font-family="Times-Roman" font-size="10.00" fill="#64748b">yasm</text>
</g>
<!-- openssl&#45;&gt;yasm -->
<g id="edge7" class="edge">
<title>openssl&#45;&gt;yasm</title>
<path fill="none" stroke="#64748b" stroke-dasharray="5,2" d="M126.23,-74.15C136.3,-64.37 149.64,-51.4 160.85,-40.5"/>
<polygon fill="#64748b" stroke="#64748b" points="163.48,-42.83 168.21,-33.35 158.6,-37.81 163.48,-42.83"/>
</g>
<!-- libssh2&#45;&gt;openssl -->
<g id="edge8" class="edge">
<title>libssh2&#45;&gt;openssl</title>
<path fill="none" stroke="#64748b" d="M140.92,-144.76C136.26,-136.4 130.47,-126.02 125.23,-116.61"/>
<polygon fill="#64748b" stroke="#64748b" points="128.16,-114.67 120.23,-107.63 122.04,-118.07 128.16,-114.67"/>
</g>
<!-- libssh2&#45;&gt;zlib -->
<g id="edge9" class="edge">
<title>libssh2&#45;&gt;zlib</title>
<path fill="none" stroke="#64748b" d="M160.86,-145.12C166.93,-136.26 174.63,-125.04 181.43,-115.12"/>
<polygon fill="#64748b" stroke="#64748b" points="184.35,-117.05 187.12,-106.82 178.57,-113.09 184.35,-117.05"/>
</g>
</g>
</svg>
